<?xml version="1.0" encoding="utf-8"?>
<svg version="1.1" xmlns="http://www.w3.org/2000/svg" viewBox="0 0 16 16" xml:space="preserve">
<style type="text/css">.s0{fill:#FFFFFF;}</style>
<circle class="s0" cx="8" cy="8" r="3"/>
<rect class="s0" x="7.3" y="0.5" width="1.4" height="2.5" rx="0.7"/>
<rect class="s0" x="7.3" y="13" width="1.4" height="2.5" rx="0.7"/>
<rect class="s0" x="0.5" y="7.3" width="2.5" height="1.4" rx="0.7"/>
<rect class="s0" x="13" y="7.3" width="2.5" height="1.4" rx="0.7"/>
<rect class="s0" x="7.3" y="0.5" width="1.4" height="2.5" rx="0.7" transform="rotate(45 8 8)"/>
<rect class="s0" x="7.3" y="0.5" width="1.4" height="2.5" rx="0.7" transform="rotate(90 8 8)"/>
<rect class="s0" x="7.3" y="0.5" width="1.4" height="2.5" rx="0.7" transform="rotate(135 8 8)"/>
<rect class="s0" x="7.3" y="0.5" width="1.4" height="2.5" rx="0.7" transform="rotate(180 8 8)"/>
<rect class="s0" x="7.3" y="0.5" width="1.4" height="2.5" rx="0.7" transform="rotate(225 8 8)"/>
<rect class="s0" x="7.3" y="0.5" width="1.4" height="2.5" rx="0.7" transform="rotate(270 8 8)"/>
<rect class="s0" x="7.3" y="0.5" width="1.4" height="2.5" rx="0.7" transform="rotate(315 8 8)"/>
</svg>
